<svg width="20" height="21" viewBox="0 0 20 21" fill="none" xmlns="http://www.w3.org/2000/svg">
<path d="M12.3477 10.4985L19.5075 2.99719C19.821 2.66793 19.9972 2.22136 19.9972 1.75571C19.9972 1.29007 19.821 0.843497 19.5075 0.514237C19.1939 0.184977 18.7687 0 18.3253 0C17.8819 0 17.4566 0.184977 17.1431 0.514237L10 8.03304L2.8569 0.514237C2.54337 0.184977 2.11812 -3.46932e-09 1.67471 0C1.2313 3.46932e-09 0.806058 0.184977 0.492521 0.514237C0.178985 0.843497 0.00284159 1.29007 0.00284159 1.75571C0.00284158 2.22136 0.178985 2.66793 0.492521 2.99719L7.65227 10.4985L0.492521 17.9998C0.336458 18.1624 0.212588 18.3558 0.128055 18.5688C0.0435221 18.7819 0 19.0105 0 19.2413C0 19.4721 0.0435221 19.7007 0.128055 19.9138C0.212588 20.1268 0.336458 20.3202 0.492521 20.4828C0.64731 20.6467 0.831467 20.7768 1.03437 20.8655C1.23727 20.9543 1.4549 21 1.67471 21C1.89452 21 2.11215 20.9543 2.31505 20.8655C2.51796 20.7768 2.70211 20.6467 2.8569 20.4828L10 12.964L17.1431 20.4828C17.2979 20.6467 17.482 20.7768 17.6849 20.8655C17.8878 20.9543 18.1055 21 18.3253 21C18.5451 21 18.7627 20.9543 18.9656 20.8655C19.1685 20.7768 19.3527 20.6467 19.5075 20.4828C19.6635 20.3202 19.7874 20.1268 19.8719 19.9138C19.9565 19.7007 20 19.4721 20 19.2413C20 19.0105 19.9565 18.7819 19.8719 18.5688C19.7874 18.3558 19.6635 18.1624 19.5075 17.9998L12.3477 10.4985Z" fill="#B4B4B4"/>
</svg>
