<svg width="13" height="11" viewBox="0 0 13 11" fill="none" xmlns="http://www.w3.org/2000/svg">
<path fill-rule="evenodd" clip-rule="evenodd" d="M0.741211 5.4998C0.741211 5.69072 0.817052 5.87382 0.95205 6.00881C1.08705 6.14381 1.27014 6.21965 1.46106 6.21965H9.80121L6.71019 9.30924C6.64326 9.37617 6.59017 9.45562 6.55395 9.54307C6.51773 9.63051 6.49908 9.72424 6.49908 9.81889C6.49908 9.91354 6.51773 10.0073 6.55395 10.0947C6.59017 10.1822 6.64326 10.2616 6.71019 10.3285C6.77712 10.3955 6.85657 10.4486 6.94402 10.4848C7.03146 10.521 7.12519 10.5396 7.21984 10.5396C7.31449 10.5396 7.40822 10.521 7.49566 10.4848C7.58311 10.4486 7.66256 10.3955 7.72949 10.3285L12.0486 6.00946C12.1156 5.94259 12.1688 5.86315 12.2051 5.7757C12.2414 5.68824 12.2601 5.59449 12.2601 5.4998C12.2601 5.40512 12.2414 5.31136 12.2051 5.22391C12.1688 5.13646 12.1156 5.05702 12.0486 4.99015L7.72949 0.671066C7.66256 0.604137 7.58311 0.551047 7.49566 0.514825C7.40822 0.478604 7.31449 0.459961 7.21984 0.459961C7.12519 0.459961 7.03146 0.478604 6.94402 0.514825C6.85657 0.551047 6.77712 0.604137 6.71019 0.671066C6.64326 0.737994 6.59017 0.81745 6.55395 0.904896C6.51773 0.992342 6.49908 1.08607 6.49908 1.18072C6.49908 1.27537 6.51773 1.36909 6.55395 1.45654C6.59017 1.54399 6.64326 1.62344 6.71019 1.69037L9.80121 4.77996H1.46106C1.27014 4.77996 1.08705 4.8558 0.95205 4.99079C0.817052 5.12579 0.741211 5.30889 0.741211 5.4998Z" fill="white"/>
</svg>
